<?xml version="1.0" encoding="UTF-8" standalone="no"?>
<!DOCTYPE svg PUBLIC "-//W3C//DTD SVG 1.1//EN"
 "http://www.w3.org/Graphics/SVG/1.1/DTD/svg11.dtd">
<!-- Generated by graphviz version 2.38.0 (20140413.2041)
 -->
<!-- Title: %3 Pages: 1 -->
<svg width="3892pt" height="332pt"
 viewBox="0.00 0.00 3892.19 332.00" xmlns="http://www.w3.org/2000/svg" xmlns:xlink="http://www.w3.org/1999/xlink">
<g id="graph0" class="graph" transform="scale(1 1) rotate(0) translate(4 328)">
<title>%3</title>
<polygon fill="white" stroke="none" points="-4,4 -4,-328 3888.19,-328 3888.19,4 -4,4"/>
<!-- Frontend_Bound -->
<g id="node1" class="node"><title>Frontend_Bound</title>
<ellipse fill="none" stroke="black" cx="699.294" cy="-306" rx="73.387" ry="18"/>
<text text-anchor="middle" x="699.294" y="-302.3" font-family="Times,serif" font-size="14.00">Frontend_Bound</text>
</g>
<!-- Frontend_Latency -->
<g id="node2" class="node"><title>Frontend_Latency</title>
<ellipse fill="none" stroke="black" cx="515.294" cy="-234" rx="78.7863" ry="18"/>
<text text-anchor="middle" x="515.294" y="-230.3" font-family="Times,serif" font-size="14.00">Frontend_Latency</text>
</g>
<!-- Frontend_Bound&#45;&gt;Frontend_Latency -->
<g id="edge1" class="edge"><title>Frontend_Bound&#45;&gt;Frontend_Latency</title>
<path fill="none" stroke="black" d="M661.169,-290.496C632.864,-279.728 594.054,-264.963 563.58,-253.37"/>
<polygon fill="black" stroke="black" points="564.594,-250.011 554.003,-249.726 562.105,-256.553 564.594,-250.011"/>
</g>
<!-- Frontend_Bandwidth -->
<g id="node9" class="node"><title>Frontend_Bandwidth</title>
<ellipse fill="none" stroke="black" cx="883.294" cy="-234" rx="88.2844" ry="18"/>
<text text-anchor="middle" x="883.294" y="-230.3" font-family="Times,serif" font-size="14.00">Frontend_Bandwidth</text>
</g>
<!-- Frontend_Bound&#45;&gt;Frontend_Bandwidth -->
<g id="edge8" class="edge"><title>Frontend_Bound&#45;&gt;Frontend_Bandwidth</title>
<path fill="none" stroke="black" d="M737.419,-290.496C765.439,-279.836 803.754,-265.26 834.085,-253.721"/>
<polygon fill="black" stroke="black" points="835.527,-256.917 843.629,-250.09 833.038,-250.375 835.527,-256.917"/>
</g>
<!-- ICache_Misses -->
<g id="node3" class="node"><title>ICache_Misses</title>
<ellipse fill="none" stroke="black" cx="66.2941" cy="-162" rx="66.0889" ry="18"/>
<text text-anchor="middle" x="66.2941" y="-158.3" font-family="Times,serif" font-size="14.00">ICache_Misses</text>
</g>
<!-- Frontend_Latency&#45;&gt;ICache_Misses -->
<g id="edge2" class="edge"><title>Frontend_Latency&#45;&gt;ICache_Misses</title>
<path fill="none" stroke="black" d="M446.775,-225.004C371.566,-215.829 247.393,-199.508 141.294,-180 135.658,-178.964 129.804,-177.797 123.962,-176.573"/>
<polygon fill="black" stroke="black" points="124.698,-173.151 114.185,-174.471 123.226,-179.995 124.698,-173.151"/>
</g>
<!-- ITLB_Misses -->
<g id="node4" class="node"><title>ITLB_Misses</title>
<ellipse fill="none" stroke="black" cx="210.294" cy="-162" rx="59.5901" ry="18"/>
<text text-anchor="middle" x="210.294" y="-158.3" font-family="Times,serif" font-size="14.00">ITLB_Misses</text>
</g>
<!-- Frontend_Latency&#45;&gt;ITLB_Misses -->
<g id="edge3" class="edge"><title>Frontend_Latency&#45;&gt;ITLB_Misses</title>
<path fill="none" stroke="black" d="M460.381,-221.004C412.503,-210.465 341.22,-194.58 279.294,-180 274.588,-178.892 269.706,-177.725 264.812,-176.543"/>
<polygon fill="black" stroke="black" points="265.346,-173.071 254.802,-174.109 263.692,-179.872 265.346,-173.071"/>
</g>
<!-- Branch_Resteers -->
<g id="node5" class="node"><title>Branch_Resteers</title>
<ellipse fill="none" stroke="black" cx="360.294" cy="-162" rx="72.2875" ry="18"/>
<text text-anchor="middle" x="360.294" y="-158.3" font-family="Times,serif" font-size="14.00">Branch_Resteers</text>
</g>
<!-- Frontend_Latency&#45;&gt;Branch_Resteers -->
<g id="edge4" class="edge"><title>Frontend_Latency&#45;&gt;Branch_Resteers</title>
<path fill="none" stroke="black" d="M481.279,-217.638C458.205,-207.218 427.528,-193.364 402.838,-182.213"/>
<polygon fill="black" stroke="black" points="404.252,-179.011 393.697,-178.085 401.37,-185.391 404.252,-179.011"/>
</g>
<!-- DSB_Switches -->
<g id="node6" class="node"><title>DSB_Switches</title>
<ellipse fill="none" stroke="black" cx="515.294" cy="-162" rx="64.9885" ry="18"/>
<text text-anchor="middle" x="515.294" y="-158.3" font-family="Times,serif" font-size="14.00">DSB_Switches</text>
</g>
<!-- Frontend_Latency&#45;&gt;DSB_Switches -->
<g id="edge5" class="edge"><title>Frontend_Latency&#45;&gt;DSB_Switches</title>
<path fill="none" stroke="black" d="M515.294,-215.697C515.294,-207.983 515.294,-198.712 515.294,-190.112"/>
<polygon fill="black" stroke="black" points="518.794,-190.104 515.294,-180.104 511.794,-190.104 518.794,-190.104"/>
</g>
<!-- LCP -->
<g id="node7" class="node"><title>LCP</title>
<ellipse fill="none" stroke="black" cx="626.294" cy="-162" rx="27.8951" ry="18"/>
<text text-anchor="middle" x="626.294" y="-158.3" font-family="Times,serif" font-size="14.00">LCP</text>
</g>
<!-- Frontend_Latency&#45;&gt;LCP -->
<g id="edge6" class="edge"><title>Frontend_Latency&#45;&gt;LCP</title>
<path fill="none" stroke="black" d="M540.76,-216.941C557.874,-206.148 580.442,-191.916 598.098,-180.781"/>
<polygon fill="black" stroke="black" points="600.238,-183.57 606.829,-175.275 596.504,-177.649 600.238,-183.57"/>
</g>
<!-- MS_Switches -->
<g id="node8" class="node"><title>MS_Switches</title>
<ellipse fill="none" stroke="black" cx="732.294" cy="-162" rx="60.3893" ry="18"/>
<text text-anchor="middle" x="732.294" y="-158.3" font-family="Times,serif" font-size="14.00">MS_Switches</text>
</g>
<!-- Frontend_Latency&#45;&gt;MS_Switches -->
<g id="edge7" class="edge"><title>Frontend_Latency&#45;&gt;MS_Switches</title>
<path fill="none" stroke="black" d="M558.946,-218.919C594.848,-207.338 645.711,-190.93 683.059,-178.882"/>
<polygon fill="black" stroke="black" points="684.285,-182.164 692.728,-175.763 682.136,-175.503 684.285,-182.164"/>
</g>
<!-- MITE -->
<g id="node10" class="node"><title>MITE</title>
<ellipse fill="none" stroke="black" cx="844.294" cy="-162" rx="33.2948" ry="18"/>
<text text-anchor="middle" x="844.294" y="-158.3" font-family="Times,serif" font-size="14.00">MITE</text>
</g>
<!-- Frontend_Bandwidth&#45;&gt;MITE -->
<g id="edge9" class="edge"><title>Frontend_Bandwidth&#45;&gt;MITE</title>
<path fill="none" stroke="black" d="M873.853,-216.055C869.254,-207.801 863.628,-197.701 858.522,-188.538"/>
<polygon fill="black" stroke="black" points="861.573,-186.821 853.648,-179.789 855.458,-190.228 861.573,-186.821"/>
</g>
<!-- DSB -->
<g id="node11" class="node"><title>DSB</title>
<ellipse fill="none" stroke="black" cx="923.294" cy="-162" rx="27.8951" ry="18"/>
<text text-anchor="middle" x="923.294" y="-158.3" font-family="Times,serif" font-size="14.00">DSB</text>
</g>
<!-- Frontend_Bandwidth&#45;&gt;DSB -->
<g id="edge10" class="edge"><title>Frontend_Bandwidth&#45;&gt;DSB</title>
<path fill="none" stroke="black" d="M892.977,-216.055C897.763,-207.679 903.635,-197.404 908.932,-188.134"/>
<polygon fill="black" stroke="black" points="912.053,-189.726 913.976,-179.307 905.976,-186.253 912.053,-189.726"/>
</g>
<!-- LSD -->
<g id="node12" class="node"><title>LSD</title>
<ellipse fill="none" stroke="black" cx="996.294" cy="-162" rx="27.0966" ry="18"/>
<text text-anchor="middle" x="996.294" y="-158.3" font-family="Times,serif" font-size="14.00">LSD</text>
</g>
<!-- Frontend_Bandwidth&#45;&gt;LSD -->
<g id="edge11" class="edge"><title>Frontend_Bandwidth&#45;&gt;LSD</title>
<path fill="none" stroke="black" d="M909.503,-216.765C927.047,-205.896 950.124,-191.601 968.072,-180.483"/>
<polygon fill="black" stroke="black" points="970.275,-183.235 976.933,-174.994 966.589,-177.284 970.275,-183.235"/>
</g>
<!-- Bad_Speculation -->
<g id="node13" class="node"><title>Bad_Speculation</title>
<ellipse fill="none" stroke="black" cx="1401.29" cy="-306" rx="72.5877" ry="18"/>
<text text-anchor="middle" x="1401.29" y="-302.3" font-family="Times,serif" font-size="14.00">Bad_Speculation</text>
</g>
<!-- Branch_Mispredicts -->
<g id="node14" class="node"><title>Branch_Mispredicts</title>
<ellipse fill="none" stroke="black" cx="1315.29" cy="-234" rx="83.6854" ry="18"/>
<text text-anchor="middle" x="1315.29" y="-230.3" font-family="Times,serif" font-size="14.00">Branch_Mispredicts</text>
</g>
<!-- Bad_Speculation&#45;&gt;Branch_Mispredicts -->
<g id="edge12" class="edge"><title>Bad_Speculation&#45;&gt;Branch_Mispredicts</title>
<path fill="none" stroke="black" d="M1380.91,-288.411C1369.77,-279.345 1355.81,-267.974 1343.62,-258.057"/>
<polygon fill="black" stroke="black" points="1345.49,-255.068 1335.53,-251.47 1341.07,-260.497 1345.49,-255.068"/>
</g>
<!-- Machine_Clears -->
<g id="node15" class="node"><title>Machine_Clears</title>
<ellipse fill="none" stroke="black" cx="1487.29" cy="-234" rx="70.3881" ry="18"/>
<text text-anchor="middle" x="1487.29" y="-230.3" font-family="Times,serif" font-size="14.00">Machine_Clears</text>
</g>
<!-- Bad_Speculation&#45;&gt;Machine_Clears -->
<g id="edge13" class="edge"><title>Bad_Speculation&#45;&gt;Machine_Clears</title>
<path fill="none" stroke="black" d="M1421.67,-288.411C1432.81,-279.345 1446.78,-267.974 1458.97,-258.057"/>
<polygon fill="black" stroke="black" points="1461.51,-260.497 1467.06,-251.47 1457.09,-255.068 1461.51,-260.497"/>
</g>
<!-- Backend_Bound -->
<g id="node16" class="node"><title>Backend_Bound</title>
<ellipse fill="none" stroke="black" cx="2330.29" cy="-306" rx="72.2875" ry="18"/>
<text text-anchor="middle" x="2330.29" y="-302.3" font-family="Times,serif" font-size="14.00">Backend_Bound</text>
</g>
<!-- Memory_Bound -->
<g id="node17" class="node"><title>Memory_Bound</title>
<ellipse fill="none" stroke="black" cx="1928.29" cy="-234" rx="71.4873" ry="18"/>
<text text-anchor="middle" x="1928.29" y="-230.3" font-family="Times,serif" font-size="14.00">Memory_Bound</text>
</g>
<!-- Backend_Bound&#45;&gt;Memory_Bound -->
<g id="edge14" class="edge"><title>Backend_Bound&#45;&gt;Memory_Bound</title>
<path fill="none" stroke="black" d="M2272.7,-294.971C2199.46,-282.217 2073.21,-260.235 1995.61,-246.721"/>
<polygon fill="black" stroke="black" points="1995.91,-243.222 1985.46,-244.954 1994.71,-250.118 1995.91,-243.222"/>
</g>
<!-- Core_Bound -->
<g id="node38" class="node"><title>Core_Bound</title>
<ellipse fill="none" stroke="black" cx="2732.29" cy="-234" rx="57.6901" ry="18"/>
<text text-anchor="middle" x="2732.29" y="-230.3" font-family="Times,serif" font-size="14.00">Core_Bound</text>
</g>
<!-- Backend_Bound&#45;&gt;Core_Bound -->
<g id="edge35" class="edge"><title>Backend_Bound&#45;&gt;Core_Bound</title>
<path fill="none" stroke="black" d="M2387.89,-294.971C2463.73,-281.765 2596.4,-258.664 2673.05,-245.317"/>
<polygon fill="black" stroke="black" points="2673.77,-248.743 2683.02,-243.58 2672.57,-241.847 2673.77,-248.743"/>
</g>
<!-- L1_Bound -->
<g id="node18" class="node"><title>L1_Bound</title>
<ellipse fill="none" stroke="black" cx="1091.29" cy="-162" rx="49.2915" ry="18"/>
<text text-anchor="middle" x="1091.29" y="-158.3" font-family="Times,serif" font-size="14.00">L1_Bound</text>
</g>
<!-- Memory_Bound&#45;&gt;L1_Bound -->
<g id="edge15" class="edge"><title>Memory_Bound&#45;&gt;L1_Bound</title>
<path fill="none" stroke="black" d="M1861.57,-227.419C1701.86,-214.063 1299.78,-180.436 1149.32,-167.853"/>
<polygon fill="black" stroke="black" points="1149.18,-164.329 1138.93,-166.984 1148.6,-171.305 1149.18,-164.329"/>
</g>
<!-- L2_Bound -->
<g id="node24" class="node"><title>L2_Bound</title>
<ellipse fill="none" stroke="black" cx="1686.29" cy="-162" rx="49.2915" ry="18"/>
<text text-anchor="middle" x="1686.29" y="-158.3" font-family="Times,serif" font-size="14.00">L2_Bound</text>
</g>
<!-- Memory_Bound&#45;&gt;L2_Bound -->
<g id="edge21" class="edge"><title>Memory_Bound&#45;&gt;L2_Bound</title>
<path fill="none" stroke="black" d="M1883.34,-219.998C1840.73,-207.673 1776.97,-189.228 1733.6,-176.684"/>
<polygon fill="black" stroke="black" points="1734.44,-173.282 1723.86,-173.865 1732.49,-180.006 1734.44,-173.282"/>
</g>
<!-- L3_Bound -->
<g id="node25" class="node"><title>L3_Bound</title>
<ellipse fill="none" stroke="black" cx="1803.29" cy="-162" rx="49.2915" ry="18"/>
<text text-anchor="middle" x="1803.29" y="-158.3" font-family="Times,serif" font-size="14.00">L3_Bound</text>
</g>
<!-- Memory_Bound&#45;&gt;L3_Bound -->
<g id="edge22" class="edge"><title>Memory_Bound&#45;&gt;L3_Bound</title>
<path fill="none" stroke="black" d="M1900.24,-217.291C1881.85,-206.99 1857.67,-193.449 1838.06,-182.466"/>
<polygon fill="black" stroke="black" points="1839.56,-179.297 1829.12,-177.464 1836.14,-185.404 1839.56,-179.297"/>
</g>
<!-- MEM_Bound -->
<g id="node30" class="node"><title>MEM_Bound</title>
<ellipse fill="none" stroke="black" cx="1996.29" cy="-162" rx="61.1893" ry="18"/>
<text text-anchor="middle" x="1996.29" y="-158.3" font-family="Times,serif" font-size="14.00">MEM_Bound</text>
</g>
<!-- Memory_Bound&#45;&gt;MEM_Bound -->
<g id="edge27" class="edge"><title>Memory_Bound&#45;&gt;MEM_Bound</title>
<path fill="none" stroke="black" d="M1944.41,-216.411C1952.96,-207.606 1963.63,-196.628 1973.06,-186.919"/>
<polygon fill="black" stroke="black" points="1975.84,-189.082 1980.29,-179.47 1970.82,-184.204 1975.84,-189.082"/>
</g>
<!-- Stores_Bound -->
<g id="node33" class="node"><title>Stores_Bound</title>
<ellipse fill="none" stroke="black" cx="2450.29" cy="-162" rx="62.2891" ry="18"/>
<text text-anchor="middle" x="2450.29" y="-158.3" font-family="Times,serif" font-size="14.00">Stores_Bound</text>
</g>
<!-- Memory_Bound&#45;&gt;Stores_Bound -->
<g id="edge30" class="edge"><title>Memory_Bound&#45;&gt;Stores_Bound</title>
<path fill="none" stroke="black" d="M1989.71,-224.764C2088.85,-211.469 2283.29,-185.395 2384.91,-171.768"/>
<polygon fill="black" stroke="black" points="2385.6,-175.207 2395.05,-170.409 2384.67,-168.269 2385.6,-175.207"/>
</g>
<!-- DTLB_Load -->
<g id="node19" class="node"><title>DTLB_Load</title>
<ellipse fill="none" stroke="black" cx="727.294" cy="-90" rx="57.6901" ry="18"/>
<text text-anchor="middle" x="727.294" y="-86.3" font-family="Times,serif" font-size="14.00">DTLB_Load</text>
</g>
<!-- L1_Bound&#45;&gt;DTLB_Load -->
<g id="edge16" class="edge"><title>L1_Bound&#45;&gt;DTLB_Load</title>
<path fill="none" stroke="black" d="M1054.98,-149.731C1047.52,-147.645 1039.69,-145.617 1032.29,-144 927.784,-121.141 899.157,-129.181 794.294,-108 789.545,-107.041 784.627,-105.961 779.712,-104.823"/>
<polygon fill="black" stroke="black" points="780.222,-101.346 769.682,-102.425 778.594,-108.155 780.222,-101.346"/>
</g>
<!-- Store_Fwd_Blk -->
<g id="node20" class="node"><title>Store_Fwd_Blk</title>
<ellipse fill="none" stroke="black" cx="872.294" cy="-90" rx="68.7879" ry="18"/>
<text text-anchor="middle" x="872.294" y="-86.3" font-family="Times,serif" font-size="14.00">Store_Fwd_Blk</text>
</g>
<!-- L1_Bound&#45;&gt;Store_Fwd_Blk -->
<g id="edge17" class="edge"><title>L1_Bound&#45;&gt;Store_Fwd_Blk</title>
<path fill="none" stroke="black" d="M1055.13,-149.441C1019.33,-137.997 964.166,-120.366 923.793,-107.461"/>
<polygon fill="black" stroke="black" points="924.718,-104.082 914.127,-104.371 922.587,-110.75 924.718,-104.082"/>
</g>
<!-- Lock_Latency -->
<g id="node21" class="node"><title>Lock_Latency</title>
<ellipse fill="none" stroke="black" cx="1023.29" cy="-90" rx="64.189" ry="18"/>
<text text-anchor="middle" x="1023.29" y="-86.3" font-family="Times,serif" font-size="14.00">Lock_Latency</text>
</g>
<!-- L1_Bound&#45;&gt;Lock_Latency -->
<g id="edge18" class="edge"><title>L1_Bound&#45;&gt;Lock_Latency</title>
<path fill="none" stroke="black" d="M1075.52,-144.765C1066.89,-135.882 1056.04,-124.709 1046.47,-114.854"/>
<polygon fill="black" stroke="black" points="1048.93,-112.367 1039.45,-107.633 1043.91,-117.245 1048.93,-112.367"/>
</g>
<!-- Split_Loads -->
<g id="node22" class="node"><title>Split_Loads</title>
<ellipse fill="none" stroke="black" cx="1159.29" cy="-90" rx="53.8905" ry="18"/>
<text text-anchor="middle" x="1159.29" y="-86.3" font-family="Times,serif" font-size="14.00">Split_Loads</text>
</g>
<!-- L1_Bound&#45;&gt;Split_Loads -->
<g id="edge19" class="edge"><title>L1_Bound&#45;&gt;Split_Loads</title>
<path fill="none" stroke="black" d="M1107.07,-144.765C1115.69,-135.882 1126.55,-124.709 1136.12,-114.854"/>
<polygon fill="black" stroke="black" points="1138.68,-117.245 1143.14,-107.633 1133.66,-112.367 1138.68,-117.245"/>
</g>
<!-- 4K_Aliasing -->
<g id="node23" class="node"><title>4K_Aliasing</title>
<ellipse fill="none" stroke="black" cx="1287.29" cy="-90" rx="56.59" ry="18"/>
<text text-anchor="middle" x="1287.29" y="-86.3" font-family="Times,serif" font-size="14.00">4K_Aliasing</text>
</g>
<!-- L1_Bound&#45;&gt;4K_Aliasing -->
<g id="edge20" class="edge"><title>L1_Bound&#45;&gt;4K_Aliasing</title>
<path fill="none" stroke="black" d="M1125.43,-148.807C1157.62,-137.314 1206.07,-120.009 1241.58,-107.328"/>
<polygon fill="black" stroke="black" points="1242.98,-110.542 1251.22,-103.882 1240.63,-103.95 1242.98,-110.542"/>
</g>
<!-- Contested_Accesses -->
<g id="node26" class="node"><title>Contested_Accesses</title>
<ellipse fill="none" stroke="black" cx="1449.29" cy="-90" rx="87.1846" ry="18"/>
<text text-anchor="middle" x="1449.29" y="-86.3" font-family="Times,serif" font-size="14.00">Contested_Accesses</text>
</g>
<!-- L3_Bound&#45;&gt;Contested_Accesses -->
<g id="edge23" class="edge"><title>L3_Bound&#45;&gt;Contested_Accesses</title>
<path fill="none" stroke="black" d="M1766.62,-149.802C1759.26,-147.734 1751.56,-145.695 1744.29,-144 1733.52,-141.487 1606.84,-118.918 1523.03,-104.052"/>
<polygon fill="black" stroke="black" points="1523.49,-100.579 1513.03,-102.279 1522.27,-107.472 1523.49,-100.579"/>
</g>
<!-- Data_Sharing -->
<g id="node27" class="node"><title>Data_Sharing</title>
<ellipse fill="none" stroke="black" cx="1614.29" cy="-90" rx="59.5901" ry="18"/>
<text text-anchor="middle" x="1614.29" y="-86.3" font-family="Times,serif" font-size="14.00">Data_Sharing</text>
</g>
<!-- L3_Bound&#45;&gt;Data_Sharing -->
<g id="edge24" class="edge"><title>L3_Bound&#45;&gt;Data_Sharing</title>
<path fill="none" stroke="black" d="M1769.94,-148.647C1739.46,-137.358 1694.11,-120.562 1660.21,-108.007"/>
<polygon fill="black" stroke="black" points="1661.13,-104.614 1650.54,-104.423 1658.7,-111.178 1661.13,-104.614"/>
</g>
<!-- L3_Latency -->
<g id="node28" class="node"><title>L3_Latency</title>
<ellipse fill="none" stroke="black" cx="1746.29" cy="-90" rx="54.6905" ry="18"/>
<text text-anchor="middle" x="1746.29" y="-86.3" font-family="Times,serif" font-size="14.00">L3_Latency</text>
</g>
<!-- L3_Bound&#45;&gt;L3_Latency -->
<g id="edge25" class="edge"><title>L3_Bound&#45;&gt;L3_Latency</title>
<path fill="none" stroke="black" d="M1789.79,-144.411C1782.76,-135.781 1774.03,-125.062 1766.24,-115.497"/>
<polygon fill="black" stroke="black" points="1768.73,-113.014 1759.71,-107.47 1763.31,-117.434 1768.73,-113.014"/>
</g>
<!-- SQ_Full -->
<g id="node29" class="node"><title>SQ_Full</title>
<ellipse fill="none" stroke="black" cx="1860.29" cy="-90" rx="41.6928" ry="18"/>
<text text-anchor="middle" x="1860.29" y="-86.3" font-family="Times,serif" font-size="14.00">SQ_Full</text>
</g>
<!-- L3_Bound&#45;&gt;SQ_Full -->
<g id="edge26" class="edge"><title>L3_Bound&#45;&gt;SQ_Full</title>
<path fill="none" stroke="black" d="M1816.8,-144.411C1823.83,-135.781 1832.56,-125.062 1840.35,-115.497"/>
<polygon fill="black" stroke="black" points="1843.28,-117.434 1846.88,-107.47 1837.85,-113.014 1843.28,-117.434"/>
</g>
<!-- MEM_Bandwidth -->
<g id="node31" class="node"><title>MEM_Bandwidth</title>
<ellipse fill="none" stroke="black" cx="1996.29" cy="-90" rx="76.0865" ry="18"/>
<text text-anchor="middle" x="1996.29" y="-86.3" font-family="Times,serif" font-size="14.00">MEM_Bandwidth</text>
</g>
<!-- MEM_Bound&#45;&gt;MEM_Bandwidth -->
<g id="edge28" class="edge"><title>MEM_Bound&#45;&gt;MEM_Bandwidth</title>
<path fill="none" stroke="black" d="M1996.29,-143.697C1996.29,-135.983 1996.29,-126.712 1996.29,-118.112"/>
<polygon fill="black" stroke="black" points="1999.79,-118.104 1996.29,-108.104 1992.79,-118.104 1999.79,-118.104"/>
</g>
<!-- MEM_Latency -->
<g id="node32" class="node"><title>MEM_Latency</title>
<ellipse fill="none" stroke="black" cx="2156.29" cy="-90" rx="66.0889" ry="18"/>
<text text-anchor="middle" x="2156.29" y="-86.3" font-family="Times,serif" font-size="14.00">MEM_Latency</text>
</g>
<!-- MEM_Bound&#45;&gt;MEM_Latency -->
<g id="edge29" class="edge"><title>MEM_Bound&#45;&gt;MEM_Latency</title>
<path fill="none" stroke="black" d="M2029.06,-146.666C2053.41,-136.014 2086.84,-121.384 2113.33,-109.795"/>
<polygon fill="black" stroke="black" points="2114.99,-112.891 2122.75,-105.677 2112.18,-106.478 2114.99,-112.891"/>
</g>
<!-- Store_Latency -->
<g id="node34" class="node"><title>Store_Latency</title>
<ellipse fill="none" stroke="black" cx="2305.29" cy="-90" rx="64.189" ry="18"/>
<text text-anchor="middle" x="2305.29" y="-86.3" font-family="Times,serif" font-size="14.00">Store_Latency</text>
</g>
<!-- Stores_Bound&#45;&gt;Store_Latency -->
<g id="edge31" class="edge"><title>Stores_Bound&#45;&gt;Store_Latency</title>
<path fill="none" stroke="black" d="M2419.54,-146.155C2397.82,-135.668 2368.51,-121.518 2345.02,-110.177"/>
<polygon fill="black" stroke="black" points="2346.53,-107.019 2336,-105.824 2343.48,-113.323 2346.53,-107.019"/>
</g>
<!-- False_Sharing -->
<g id="node35" class="node"><title>False_Sharing</title>
<ellipse fill="none" stroke="black" cx="2450.29" cy="-90" rx="62.2891" ry="18"/>
<text text-anchor="middle" x="2450.29" y="-86.3" font-family="Times,serif" font-size="14.00">False_Sharing</text>
</g>
<!-- Stores_Bound&#45;&gt;False_Sharing -->
<g id="edge32" class="edge"><title>Stores_Bound&#45;&gt;False_Sharing</title>
<path fill="none" stroke="black" d="M2450.29,-143.697C2450.29,-135.983 2450.29,-126.712 2450.29,-118.112"/>
<polygon fill="black" stroke="black" points="2453.79,-118.104 2450.29,-108.104 2446.79,-118.104 2453.79,-118.104"/>
</g>
<!-- Split_Stores -->
<g id="node36" class="node"><title>Split_Stores</title>
<ellipse fill="none" stroke="black" cx="2585.29" cy="-90" rx="54.6905" ry="18"/>
<text text-anchor="middle" x="2585.29" y="-86.3" font-family="Times,serif" font-size="14.00">Split_Stores</text>
</g>
<!-- Stores_Bound&#45;&gt;Split_Stores -->
<g id="edge33" class="edge"><title>Stores_Bound&#45;&gt;Split_Stores</title>
<path fill="none" stroke="black" d="M2479.26,-145.983C2499.46,-135.508 2526.58,-121.442 2548.34,-110.159"/>
<polygon fill="black" stroke="black" points="2550.04,-113.223 2557.31,-105.513 2546.82,-107.009 2550.04,-113.223"/>
</g>
<!-- DTLB_Store -->
<g id="node37" class="node"><title>DTLB_Store</title>
<ellipse fill="none" stroke="black" cx="2715.29" cy="-90" rx="57.6901" ry="18"/>
<text text-anchor="middle" x="2715.29" y="-86.3" font-family="Times,serif" font-size="14.00">DTLB_Store</text>
</g>
<!-- Stores_Bound&#45;&gt;DTLB_Store -->
<g id="edge34" class="edge"><title>Stores_Bound&#45;&gt;DTLB_Store</title>
<path fill="none" stroke="black" d="M2494.65,-149.284C2540.97,-137.049 2613.58,-117.868 2662.74,-104.882"/>
<polygon fill="black" stroke="black" points="2663.78,-108.228 2672.55,-102.29 2661.99,-101.46 2663.78,-108.228"/>
</g>
<!-- Divider -->
<g id="node39" class="node"><title>Divider</title>
<ellipse fill="none" stroke="black" cx="2732.29" cy="-162" rx="38.1938" ry="18"/>
<text text-anchor="middle" x="2732.29" y="-158.3" font-family="Times,serif" font-size="14.00">Divider</text>
</g>
<!-- Core_Bound&#45;&gt;Divider -->
<g id="edge36" class="edge"><title>Core_Bound&#45;&gt;Divider</title>
<path fill="none" stroke="black" d="M2732.29,-215.697C2732.29,-207.983 2732.29,-198.712 2732.29,-190.112"/>
<polygon fill="black" stroke="black" points="2735.79,-190.104 2732.29,-180.104 2728.79,-190.104 2735.79,-190.104"/>
</g>
<!-- Ports_Utilization -->
<g id="node40" class="node"><title>Ports_Utilization</title>
<ellipse fill="none" stroke="black" cx="3025.29" cy="-162" rx="73.387" ry="18"/>
<text text-anchor="middle" x="3025.29" y="-158.3" font-family="Times,serif" font-size="14.00">Ports_Utilization</text>
</g>
<!-- Core_Bound&#45;&gt;Ports_Utilization -->
<g id="edge37" class="edge"><title>Core_Bound&#45;&gt;Ports_Utilization</title>
<path fill="none" stroke="black" d="M2776.79,-222.369C2827.01,-210.372 2908.96,-190.792 2964.92,-177.423"/>
<polygon fill="black" stroke="black" points="2965.8,-180.813 2974.71,-175.085 2964.17,-174.005 2965.8,-180.813"/>
</g>
<!-- 0_Ports_Utilized -->
<g id="node41" class="node"><title>0_Ports_Utilized</title>
<ellipse fill="none" stroke="black" cx="2864.29" cy="-90" rx="73.387" ry="18"/>
<text text-anchor="middle" x="2864.29" y="-86.3" font-family="Times,serif" font-size="14.00">0_Ports_Utilized</text>
</g>
<!-- Ports_Utilization&#45;&gt;0_Ports_Utilized -->
<g id="edge38" class="edge"><title>Ports_Utilization&#45;&gt;0_Ports_Utilized</title>
<path fill="none" stroke="black" d="M2990.76,-145.983C2966.56,-135.464 2934.04,-121.324 2908.03,-110.017"/>
<polygon fill="black" stroke="black" points="2909.34,-106.769 2898.78,-105.992 2906.55,-113.189 2909.34,-106.769"/>
</g>
<!-- 1_Port_Utilized -->
<g id="node42" class="node"><title>1_Port_Utilized</title>
<ellipse fill="none" stroke="black" cx="3025.29" cy="-90" rx="69.5877" ry="18"/>
<text text-anchor="middle" x="3025.29" y="-86.3" font-family="Times,serif" font-size="14.00">1_Port_Utilized</text>
</g>
<!-- Ports_Utilization&#45;&gt;1_Port_Utilized -->
<g id="edge39" class="edge"><title>Ports_Utilization&#45;&gt;1_Port_Utilized</title>
<path fill="none" stroke="black" d="M3025.29,-143.697C3025.29,-135.983 3025.29,-126.712 3025.29,-118.112"/>
<polygon fill="black" stroke="black" points="3028.79,-118.104 3025.29,-108.104 3021.79,-118.104 3028.79,-118.104"/>
</g>
<!-- 2_Ports_Utilized -->
<g id="node43" class="node"><title>2_Ports_Utilized</title>
<ellipse fill="none" stroke="black" cx="3186.29" cy="-90" rx="73.387" ry="18"/>
<text text-anchor="middle" x="3186.29" y="-86.3" font-family="Times,serif" font-size="14.00">2_Ports_Utilized</text>
</g>
<!-- Ports_Utilization&#45;&gt;2_Ports_Utilized -->
<g id="edge40" class="edge"><title>Ports_Utilization&#45;&gt;2_Ports_Utilized</title>
<path fill="none" stroke="black" d="M3059.83,-145.983C3084.03,-135.464 3116.55,-121.324 3142.55,-110.017"/>
<polygon fill="black" stroke="black" points="3144.04,-113.189 3151.81,-105.992 3141.25,-106.769 3144.04,-113.189"/>
</g>
<!-- 3m_Ports_Utilized -->
<g id="node44" class="node"><title>3m_Ports_Utilized</title>
<ellipse fill="none" stroke="black" cx="3358.29" cy="-90" rx="80.6858" ry="18"/>
<text text-anchor="middle" x="3358.29" y="-86.3" font-family="Times,serif" font-size="14.00">3m_Ports_Utilized</text>
</g>
<!-- Ports_Utilization&#45;&gt;3m_Ports_Utilized -->
<g id="edge41" class="edge"><title>Ports_Utilization&#45;&gt;3m_Ports_Utilized</title>
<path fill="none" stroke="black" d="M3079.17,-149.675C3137.06,-137.506 3229.14,-118.149 3291.57,-105.025"/>
<polygon fill="black" stroke="black" points="3292.65,-108.376 3301.71,-102.894 3291.21,-101.526 3292.65,-108.376"/>
</g>
<!-- Port_0 -->
<g id="node45" class="node"><title>Port_0</title>
<ellipse fill="none" stroke="black" cx="3138.29" cy="-18" rx="35.194" ry="18"/>
<text text-anchor="middle" x="3138.29" y="-14.3" font-family="Times,serif" font-size="14.00">Port_0</text>
</g>
<!-- 3m_Ports_Utilized&#45;&gt;Port_0 -->
<g id="edge42" class="edge"><title>3m_Ports_Utilized&#45;&gt;Port_0</title>
<path fill="none" stroke="black" d="M3309.8,-75.4733C3274.27,-65.3038 3225,-50.6573 3182.29,-36 3179.77,-35.1327 3177.17,-34.2104 3174.56,-33.2612"/>
<polygon fill="black" stroke="black" points="3175.76,-29.9731 3165.17,-29.756 3173.31,-36.5313 3175.76,-29.9731"/>
</g>
<!-- Port_1 -->
<g id="node46" class="node"><title>Port_1</title>
<ellipse fill="none" stroke="black" cx="3226.29" cy="-18" rx="35.194" ry="18"/>
<text text-anchor="middle" x="3226.29" y="-14.3" font-family="Times,serif" font-size="14.00">Port_1</text>
</g>
<!-- 3m_Ports_Utilized&#45;&gt;Port_1 -->
<g id="edge43" class="edge"><title>3m_Ports_Utilized&#45;&gt;Port_1</title>
<path fill="none" stroke="black" d="M3328.34,-73.1159C3307.67,-62.1529 3280.19,-47.5803 3258.95,-36.3193"/>
<polygon fill="black" stroke="black" points="3260.45,-33.153 3249.98,-31.5601 3257.17,-39.3373 3260.45,-33.153"/>
</g>
<!-- Port_2 -->
<g id="node47" class="node"><title>Port_2</title>
<ellipse fill="none" stroke="black" cx="3314.29" cy="-18" rx="35.194" ry="18"/>
<text text-anchor="middle" x="3314.29" y="-14.3" font-family="Times,serif" font-size="14.00">Port_2</text>
</g>
<!-- 3m_Ports_Utilized&#45;&gt;Port_2 -->
<g id="edge44" class="edge"><title>3m_Ports_Utilized&#45;&gt;Port_2</title>
<path fill="none" stroke="black" d="M3347.64,-72.055C3342.32,-63.592 3335.78,-53.1897 3329.91,-43.8447"/>
<polygon fill="black" stroke="black" points="3332.83,-41.9108 3324.54,-35.307 3326.9,-45.636 3332.83,-41.9108"/>
</g>
<!-- Port_3 -->
<g id="node48" class="node"><title>Port_3</title>
<ellipse fill="none" stroke="black" cx="3402.29" cy="-18" rx="35.194" ry="18"/>
<text text-anchor="middle" x="3402.29" y="-14.3" font-family="Times,serif" font-size="14.00">Port_3</text>
</g>
<!-- 3m_Ports_Utilized&#45;&gt;Port_3 -->
<g id="edge45" class="edge"><title>3m_Ports_Utilized&#45;&gt;Port_3</title>
<path fill="none" stroke="black" d="M3368.95,-72.055C3374.26,-63.592 3380.8,-53.1897 3386.68,-43.8447"/>
<polygon fill="black" stroke="black" points="3389.69,-45.636 3392.04,-35.307 3383.76,-41.9108 3389.69,-45.636"/>
</g>
<!-- Port_4 -->
<g id="node49" class="node"><title>Port_4</title>
<ellipse fill="none" stroke="black" cx="3490.29" cy="-18" rx="35.194" ry="18"/>
<text text-anchor="middle" x="3490.29" y="-14.3" font-family="Times,serif" font-size="14.00">Port_4</text>
</g>
<!-- 3m_Ports_Utilized&#45;&gt;Port_4 -->
<g id="edge46" class="edge"><title>3m_Ports_Utilized&#45;&gt;Port_4</title>
<path fill="none" stroke="black" d="M3388.25,-73.1159C3408.92,-62.1529 3436.4,-47.5803 3457.63,-36.3193"/>
<polygon fill="black" stroke="black" points="3459.41,-39.3373 3466.61,-31.5601 3456.14,-33.153 3459.41,-39.3373"/>
</g>
<!-- Port_5 -->
<g id="node50" class="node"><title>Port_5</title>
<ellipse fill="none" stroke="black" cx="3578.29" cy="-18" rx="35.194" ry="18"/>
<text text-anchor="middle" x="3578.29" y="-14.3" font-family="Times,serif" font-size="14.00">Port_5</text>
</g>
<!-- 3m_Ports_Utilized&#45;&gt;Port_5 -->
<g id="edge47" class="edge"><title>3m_Ports_Utilized&#45;&gt;Port_5</title>
<path fill="none" stroke="black" d="M3406.79,-75.4733C3442.32,-65.3038 3491.59,-50.6573 3534.29,-36 3536.82,-35.1327 3539.42,-34.2104 3542.03,-33.2612"/>
<polygon fill="black" stroke="black" points="3543.28,-36.5313 3551.42,-29.756 3540.83,-29.9731 3543.28,-36.5313"/>
</g>
<!-- Retiring -->
<g id="node51" class="node"><title>Retiring</title>
<ellipse fill="none" stroke="black" cx="3718.29" cy="-306" rx="40.0939" ry="18"/>
<text text-anchor="middle" x="3718.29" y="-302.3" font-family="Times,serif" font-size="14.00">Retiring</text>
</g>
<!-- Base -->
<g id="node52" class="node"><title>Base</title>
<ellipse fill="none" stroke="black" cx="3648.29" cy="-234" rx="28.6953" ry="18"/>
<text text-anchor="middle" x="3648.29" y="-230.3" font-family="Times,serif" font-size="14.00">Base</text>
</g>
<!-- Retiring&#45;&gt;Base -->
<g id="edge48" class="edge"><title>Retiring&#45;&gt;Base</title>
<path fill="none" stroke="black" d="M3702.41,-289.116C3692.93,-279.638 3680.76,-267.462 3670.35,-257.06"/>
<polygon fill="black" stroke="black" points="3672.7,-254.46 3663.16,-249.864 3667.75,-259.41 3672.7,-254.46"/>
</g>
<!-- Microcode_Sequencer -->
<g id="node58" class="node"><title>Microcode_Sequencer</title>
<ellipse fill="none" stroke="black" cx="3789.29" cy="-234" rx="94.7833" ry="18"/>
<text text-anchor="middle" x="3789.29" y="-230.3" font-family="Times,serif" font-size="14.00">Microcode_Sequencer</text>
</g>
<!-- Retiring&#45;&gt;Microcode_Sequencer -->
<g id="edge54" class="edge"><title>Retiring&#45;&gt;Microcode_Sequencer</title>
<path fill="none" stroke="black" d="M3734.41,-289.116C3743.4,-280.244 3754.8,-269.009 3764.87,-259.077"/>
<polygon fill="black" stroke="black" points="3767.59,-261.31 3772.26,-251.797 3762.68,-256.326 3767.59,-261.31"/>
</g>
<!-- FP_Arith -->
<g id="node53" class="node"><title>FP_Arith</title>
<ellipse fill="none" stroke="black" cx="3601.29" cy="-162" rx="44.6926" ry="18"/>
<text text-anchor="middle" x="3601.29" y="-158.3" font-family="Times,serif" font-size="14.00">FP_Arith</text>
</g>
<!-- Base&#45;&gt;FP_Arith -->
<g id="edge49" class="edge"><title>Base&#45;&gt;FP_Arith</title>
<path fill="none" stroke="black" d="M3637.63,-217.116C3631.91,-208.592 3624.72,-197.886 3618.25,-188.251"/>
<polygon fill="black" stroke="black" points="3621.05,-186.149 3612.57,-179.797 3615.24,-190.051 3621.05,-186.149"/>
</g>
<!-- Other -->
<g id="node57" class="node"><title>Other</title>
<ellipse fill="none" stroke="black" cx="3696.29" cy="-162" rx="31.6951" ry="18"/>
<text text-anchor="middle" x="3696.29" y="-158.3" font-family="Times,serif" font-size="14.00">Other</text>
</g>
<!-- Base&#45;&gt;Other -->
<g id="edge53" class="edge"><title>Base&#45;&gt;Other</title>
<path fill="none" stroke="black" d="M3659.19,-217.116C3665.12,-208.469 3672.59,-197.575 3679.27,-187.833"/>
<polygon fill="black" stroke="black" points="3682.34,-189.534 3685.11,-179.307 3676.57,-185.575 3682.34,-189.534"/>
</g>
<!-- FP_x87 -->
<g id="node54" class="node"><title>FP_x87</title>
<ellipse fill="none" stroke="black" cx="3496.29" cy="-90" rx="38.9931" ry="18"/>
<text text-anchor="middle" x="3496.29" y="-86.3" font-family="Times,serif" font-size="14.00">FP_x87</text>
</g>
<!-- FP_Arith&#45;&gt;FP_x87 -->
<g id="edge50" class="edge"><title>FP_Arith&#45;&gt;FP_x87</title>
<path fill="none" stroke="black" d="M3579.03,-146.155C3563.65,-135.902 3543.02,-122.149 3526.21,-110.942"/>
<polygon fill="black" stroke="black" points="3528.07,-107.98 3517.81,-105.345 3524.19,-113.804 3528.07,-107.98"/>
</g>
<!-- FP_Scalar -->
<g id="node55" class="node"><title>FP_Scalar</title>
<ellipse fill="none" stroke="black" cx="3601.29" cy="-90" rx="48.1917" ry="18"/>
<text text-anchor="middle" x="3601.29" y="-86.3" font-family="Times,serif" font-size="14.00">FP_Scalar</text>
</g>
<!-- FP_Arith&#45;&gt;FP_Scalar -->
<g id="edge51" class="edge"><title>FP_Arith&#45;&gt;FP_Scalar</title>
<path fill="none" stroke="black" d="M3601.29,-143.697C3601.29,-135.983 3601.29,-126.712 3601.29,-118.112"/>
<polygon fill="black" stroke="black" points="3604.79,-118.104 3601.29,-108.104 3597.79,-118.104 3604.79,-118.104"/>
</g>
<!-- FP_Vector -->
<g id="node56" class="node"><title>FP_Vector</title>
<ellipse fill="none" stroke="black" cx="3718.29" cy="-90" rx="51.1914" ry="18"/>
<text text-anchor="middle" x="3718.29" y="-86.3" font-family="Times,serif" font-size="14.00">FP_Vector</text>
</g>
<!-- FP_Arith&#45;&gt;FP_Vector -->
<g id="edge52" class="edge"><title>FP_Arith&#45;&gt;FP_Vector</title>
<path fill="none" stroke="black" d="M3625.25,-146.666C3642.45,-136.376 3665.86,-122.373 3684.89,-110.986"/>
<polygon fill="black" stroke="black" points="3686.78,-113.935 3693.56,-105.798 3683.18,-107.928 3686.78,-113.935"/>
</g>
</g>
</svg>
